<svg width="88" height="64" xmlns="http://www.w3.org/2000/svg" xmlns:xlink="http://www.w3.org/1999/xlink"><svg width="32" height="32" fill="none" viewBox="-4 -4 32 32" id="icon_arrow_down" xmlns="http://www.w3.org/2000/svg"><path d="M6 9l6 6 6-6" stroke="#fff" stroke-width="1.5" stroke-linecap="round" stroke-linejoin="round"/></svg><svg width="24" height="24" fill="none" viewBox="-4 -4 24 24" id="icon_arrow_right" x="64" xmlns="http://www.w3.org/2000/svg"><path d="M6 4l4 4-4 4" stroke="#fff" stroke-width="1.5" stroke-linecap="round" stroke-linejoin="round"/></svg><svg width="24" height="24" fill="none" viewBox="-4 -4 24 24" id="icon_arrow_right-bl" x="64" y="24" xmlns="http://www.w3.org/2000/svg"><path d="M6 4l4 4-4 4" stroke="#000" stroke-width="1.5" stroke-linecap="round" stroke-linejoin="round"/></svg><svg width="32" height="32" fill="none" viewBox="-4 -4 32 32" id="icon_close" x="32" xmlns="http://www.w3.org/2000/svg"><path d="M6.757 17.243L12 12m5.243-5.243L12 12m0 0L6.757 6.757M12 12l5.243 5.243" stroke="#fff" stroke-width="1.5" stroke-linecap="round" stroke-linejoin="round"/></svg><svg width="32" height="32" fill="none" viewBox="-4 -4 32 32" id="icon_nav" y="32" xmlns="http://www.w3.org/2000/svg"><path d="M3 5h8m-8 7h13M3 19h18" stroke="#fff" stroke-width="2" stroke-linecap="round" stroke-linejoin="round"/></svg><svg width="32" height="32" fill="none" viewBox="-4 -4 32 32" id="icon_search" x="32" y="32" xmlns="http://www.w3.org/2000/svg"><path d="M15.5 15.5L19 19M5 11a6 6 0 1012 0 6 6 0 00-12 0z" stroke="#fff" stroke-width="1.5" stroke-linecap="round" stroke-linejoin="round"/></svg></svg>